<svg id="f15aef96-9283-4e8a-8ff0-0ee7b03fd80b" data-name="Layer 1" xmlns="http://www.w3.org/2000/svg" viewBox="0 0 397.24 200.01"><title>evermaze_logo</title><g id="460d27a3-5325-4848-8e3f-e5a2b4fbdf79" data-name="surface1"><path d="M203.81,258.13a.08.08,0,0,0-.09,0C185.76,282.13,168,300,140,300c-25.22,0-46-14.33-55.1-35.61h-42C53.53,308.27,92.42,340,140,340c40,0,66.06-20.2,88.08-46.19a.09.09,0,0,0,0-.12c-8-12-15.82-21.68-21.83-33.69A2.56,2.56,0,0,0,203.81,258.13Z" transform="translate(-42.76 -140)"/><path d="M440,237.57C438.72,182.72,395.2,140,340,140c-40,0-66.06,20.21-88.08,46.19a.09.09,0,0,0,0,.12c7.94,12,13.87,21.83,21.83,31.81h0l2.42,3.63a.1.1,0,0,0,.16,0C294.27,195.81,312.07,180,340,180c34.58,0,60.91,26.94,60,61.8-.92,34-30.42,60-64.39,58.08-17.25-1-29.17-7.64-41.21-19.25-13.05-12.58-25-31.25-37.5-51.25s-25.55-41.33-43.75-58.75c-17-16.27-39.58-28.86-67.17-30.46a99.53,99.53,0,0,0-103.2,76.22h42.1a61.19,61.19,0,0,1,59.55-36.27c17.25,1,29.17,7.64,41.22,19.26,13,12.57,25,31.25,37.5,51.25s25.54,41.32,43.75,58.75c17,16.26,39.57,28.85,67.16,30.45A99.6,99.6,0,0,0,440,237.57Z" transform="translate(-42.76 -140)"/></g></svg>