<?xml version="1.0" encoding="utf-8"?>
<!-- Generator: Adobe Illustrator 19.1.0, SVG Export Plug-In . SVG Version: 6.00 Build 0)  -->
<svg version="1.1" xmlns="http://www.w3.org/2000/svg" xmlns:xlink="http://www.w3.org/1999/xlink" x="0px" y="0px"
	 viewBox="0 0 752 336" style="enable-background:new 0 0 752 336;" xml:space="preserve">
<style type="text/css">
	.st0{fill:#FFFFFF;}
	.st1{opacity:0.7;}
	.st2{fill:none;}
	.st3{clip-path:url(#SVGID_2_);}
	.st4{fill:#FFA000;}
	.st5{opacity:0.12;fill:url(#SVGID_3_);enable-background:new    ;}
	.st6{fill:#F57C00;}
	.st7{opacity:0.2;fill:url(#SVGID_4_);enable-background:new    ;}
	.st8{fill:#FFCA28;}
	.st9{fill:#FFFFFF;fill-opacity:0.2;}
	.st10{opacity:0.2;fill:#A52714;enable-background:new    ;}
	.st11{fill:url(#SVGID_5_);}
	.st12{opacity:0.54;}
	.st13{clip-path:url(#SVGID_7_);}
	.st14{opacity:0.12;fill:url(#SVGID_8_);enable-background:new    ;}
	.st15{opacity:0.2;fill:url(#SVGID_9_);enable-background:new    ;}
	.st16{fill:url(#SVGID_10_);}
	.st17{display:none;}
	.st18{display:inline;fill:#00FFFF;fill-opacity:0.2;}
</style>
<g id="Layer_3">
</g>
<g id="Layer_1">
	<g>
		<path id="icon_1_" class="st0" d="M69.6,212.9L87,101.4c0.6-3.8,5.7-4.7,7.5-1.3l18.7,35L69.6,212.9z M193.3,240l-16.6-102.7
			c-0.5-3.2-4.5-4.5-6.8-2.2L65.3,240l57.9,32.5c3.6,2,8.1,2,11.7,0L193.3,240z M146.3,150.4l-13.4-25.5c-1.5-2.9-5.6-2.9-7.1,0
			l-58.9,105L146.3,150.4z"/>
		<g>
			<path class="st0" d="M257.3,236h-11.8v-91.6h53.5v11.3h-41.7v30.1H295v11h-37.6V236z"/>
			<path class="st0" d="M319.3,157.6c-1.6,1.6-3.6,2.4-5.9,2.4c-2.3,0-4.3-0.8-5.9-2.4c-1.6-1.6-2.4-3.6-2.4-5.9s0.8-4.3,2.4-5.9
				c1.6-1.6,3.6-2.4,5.9-2.4c2.3,0,4.3,0.8,5.9,2.4c1.6,1.6,2.4,3.6,2.4,5.9S320.9,155.9,319.3,157.6z M319.3,236h-11.8v-62.7h11.8
				V236z"/>
			<path class="st0" d="M343.9,236h-11.8v-62.7h11.3v10.2h0.5c1.2-3.4,3.6-6.2,7.4-8.4c3.7-2.2,7.3-3.3,10.8-3.3
				c3.5,0,6.4,0.5,8.8,1.5l-4.5,11c-1.5-0.6-3.6-0.9-6.3-0.9c-4.3,0-8,1.7-11.3,5.1c-3.3,3.4-4.9,7.8-4.9,13.2V236z"/>
			<path class="st0" d="M399.3,238.1c-9.5,0-17.2-3.2-23.1-9.5c-5.9-6.3-8.9-14.3-8.9-23.9c0-9.1,2.9-17,8.6-23.6
				c5.8-6.6,13.1-9.9,22.1-9.9c9.3,0,16.7,3,22.3,9.1c5.6,6.1,8.4,14.2,8.4,24.3l-0.1,2.2h-49.5c0.3,6.3,2.5,11.3,6.3,15
				c3.9,3.7,8.4,5.5,13.6,5.5c8.4,0,14.2-3.6,17.2-10.8l10.5,4.4c-2,4.9-5.4,8.9-10.1,12.2S406.1,238.1,399.3,238.1z M416.2,197.1
				c-0.3-3.6-1.9-7-4.9-10.2c-3-3.2-7.5-4.9-13.5-4.9c-4.4,0-8.1,1.4-11.3,4.1c-3.2,2.7-5.4,6.4-6.6,11H416.2z"/>
			<path class="st0" d="M470.1,238.1c-4.8,0-9.1-1-12.9-3.1c-3.8-2-6.6-4.6-8.5-7.7h-0.5v8.7h-11.3v-91.6h11.8v28.9l-0.5,8.7h0.5
				c1.9-3.1,4.7-5.6,8.5-7.7c3.8-2,8.1-3.1,12.9-3.1c8.1,0,15.1,3.2,21,9.6s8.8,14.3,8.8,23.8c0,9.5-2.9,17.4-8.8,23.8
				C485.2,234.9,478.2,238.1,470.1,238.1z M468.1,227.3c5.5,0,10.2-2.1,14.1-6.2c3.9-4.1,5.9-9.6,5.9-16.4c0-6.8-2-12.3-5.9-16.4
				c-3.9-4.1-8.6-6.2-14.1-6.2c-5.5,0-10.3,2-14.1,6.1s-5.8,9.6-5.8,16.5c0,6.9,1.9,12.4,5.8,16.5
				C457.9,225.3,462.6,227.3,468.1,227.3z"/>
			<path class="st0" d="M529.2,238.1c-6.7,0-12.2-1.9-16.7-5.8c-4.5-3.8-6.7-8.9-6.7-15.2c0-6.8,2.6-12.2,7.9-16.1
				c5.3-3.9,11.8-5.8,19.6-5.8c6.9,0,12.6,1.3,17,3.8v-1.8c0-4.6-1.6-8.3-4.7-11.1c-3.2-2.8-7-4.2-11.6-4.2c-3.4,0-6.5,0.8-9.3,2.4
				c-2.8,1.6-4.7,3.8-5.7,6.7l-10.8-4.6c1.5-3.8,4.3-7.2,8.6-10.4c4.3-3.2,9.9-4.8,16.9-4.8c8,0,14.7,2.3,20,7
				c5.3,4.7,7.9,11.3,7.9,19.8V236h-11.3v-8.7h-0.5C545.1,234.5,538.2,238.1,529.2,238.1z M531.1,227.3c4.9,0,9.3-1.8,13.2-5.4
				c4-3.6,6-7.9,6-12.9c-3.3-2.7-8.3-4.1-15-4.1c-5.7,0-10,1.2-12.9,3.7c-2.9,2.5-4.4,5.4-4.4,8.7c0,3.1,1.3,5.5,4,7.3
				C524.7,226.4,527.7,227.3,531.1,227.3z"/>
			<path class="st0" d="M594.3,238.1c-7,0-12.8-1.7-17.3-5.1c-4.6-3.4-7.9-7.7-10-12.8l10.5-4.4c3.3,7.9,9,11.8,17,11.8
				c3.7,0,6.7-0.8,9-2.4c2.3-1.6,3.5-3.8,3.5-6.4c0-4.1-2.9-6.9-8.6-8.3l-12.7-3.1c-4-1-7.8-3-11.4-5.8c-3.6-2.9-5.4-6.7-5.4-11.6
				c0-5.5,2.5-10,7.4-13.5c4.9-3.5,10.7-5.2,17.5-5.2c5.5,0,10.5,1.3,14.8,3.8c4.4,2.5,7.5,6.1,9.3,10.8l-10.2,4.2
				c-2.3-5.5-7.1-8.3-14.3-8.3c-3.5,0-6.4,0.7-8.8,2.2c-2.4,1.5-3.6,3.4-3.6,5.9c0,3.6,2.8,6,8.3,7.3l12.4,2.9
				c5.9,1.4,10.2,3.7,13.1,7c2.8,3.3,4.2,7.1,4.2,11.3c0,5.6-2.3,10.3-6.9,14.1S601.6,238.1,594.3,238.1z"/>
			<path class="st0" d="M655.8,238.1c-9.5,0-17.2-3.2-23.1-9.5c-5.9-6.3-8.9-14.3-8.9-23.9c0-9.1,2.9-17,8.6-23.6
				c5.8-6.6,13.1-9.9,22.1-9.9c9.3,0,16.7,3,22.3,9.1c5.6,6.1,8.4,14.2,8.4,24.3l-0.1,2.2h-49.5c0.3,6.3,2.5,11.3,6.3,15
				c3.9,3.7,8.4,5.5,13.6,5.5c8.4,0,14.2-3.6,17.2-10.8l10.5,4.4c-2,4.9-5.4,8.9-10.1,12.2C668.4,236.4,662.6,238.1,655.8,238.1z
				 M672.7,197.1c-0.3-3.6-1.9-7-4.9-10.2c-3-3.2-7.5-4.9-13.5-4.9c-4.4,0-8.1,1.4-11.3,4.1c-3.2,2.7-5.4,6.4-6.6,11H672.7z"/>
		</g>
	</g>
	<g>
		<path class="st0" d="M244.7,109.2v-43h15.5c3.4,0,6.3,1.1,8.7,3.3c2.5,2.2,3.7,5,3.7,8.4c0,2-0.5,3.8-1.6,5.4
			c-1.1,1.6-2.5,2.7-4.2,3.5v0.2c2.1,0.7,3.9,2,5.2,3.7c1.4,1.8,2,3.8,2,6.1c0,3.5-1.3,6.4-3.9,8.8c-2.6,2.3-5.6,3.5-9.1,3.5H244.7z
			 M250.2,84.7h10c2.1,0,3.8-0.7,5-2.1c1.3-1.4,1.9-2.9,1.9-4.5c0-1.6-0.6-3.1-1.8-4.5c-1.2-1.4-2.8-2-4.8-2h-10.3V84.7z M250.2,104
			h11.1c2.1,0,3.8-0.7,5.2-2.2c1.3-1.5,2-3.1,2-4.9c0-1.8-0.7-3.4-2-4.8c-1.4-1.5-3.1-2.2-5.3-2.2h-10.9V104z"/>
		<path class="st0" d="M306.5,109.2h-5.3v-4.1H301c-0.8,1.4-2.1,2.6-3.8,3.6c-1.7,1-3.5,1.5-5.5,1.5c-3.7,0-6.5-1.1-8.4-3.4
			c-1.9-2.2-2.9-5.2-2.9-9v-18h5.5v17.1c0,5.5,2.4,8.2,7.3,8.2c2.3,0,4.1-0.9,5.6-2.8c1.4-1.8,2.2-4,2.2-6.4V79.8h5.5V109.2z"/>
		<path class="st0" d="M319.9,72.5c-0.8,0.8-1.7,1.1-2.8,1.1s-2-0.4-2.8-1.1c-0.8-0.8-1.1-1.7-1.1-2.8s0.4-2,1.1-2.8
			c0.8-0.8,1.7-1.1,2.8-1.1s2,0.4,2.8,1.1c0.8,0.8,1.1,1.7,1.1,2.8S320.6,71.7,319.9,72.5z M319.9,109.2h-5.5V79.8h5.5V109.2z"/>
		<path class="st0" d="M333.2,109.2h-5.5v-43h5.5V109.2z"/>
		<path class="st0" d="M352.9,109.7c-3.1,0-5.4-0.8-7-2.5c-1.6-1.6-2.4-4-2.4-7V84.9h-5.2v-5h5.2v-9h5.5v9h7.2v5h-7.2v15
			c0,3.2,1.3,4.8,4,4.8c1,0,1.8-0.2,2.5-0.5l1.9,4.7C356.1,109.5,354.6,109.7,352.9,109.7z"/>
		<path class="st0" d="M410.3,109.2h-5.6l-7.3-22.6l-7.3,22.6h-5.6l-9.5-29.4h5.8l6.5,22.2h0.1l7.3-22.2h5.7l7.3,22.2h0.1l6.5-22.2
			h5.6L410.3,109.2z"/>
		<path class="st0" d="M430.1,72.5c-0.8,0.8-1.7,1.1-2.8,1.1s-2-0.4-2.8-1.1c-0.8-0.8-1.1-1.7-1.1-2.8s0.4-2,1.1-2.8
			c0.8-0.8,1.7-1.1,2.8-1.1s2,0.4,2.8,1.1c0.8,0.8,1.1,1.7,1.1,2.8S430.8,71.7,430.1,72.5z M430.1,109.2h-5.5V79.8h5.5V109.2z"/>
		<path class="st0" d="M450,109.7c-3.1,0-5.4-0.8-7.1-2.5c-1.6-1.6-2.4-4-2.4-7V84.9h-5.2v-5h5.2v-9h5.5v9h7.2v5H446v15
			c0,3.2,1.3,4.8,4,4.8c1,0,1.8-0.2,2.5-0.5l1.9,4.7C453.2,109.5,451.8,109.7,450,109.7z"/>
		<path class="st0" d="M464.7,66.3v13.6l-0.2,4.1h0.2c0.8-1.4,2.1-2.6,3.8-3.6c1.7-1,3.6-1.5,5.5-1.5c3.6,0,6.4,1.1,8.3,3.4
			c1.9,2.2,2.9,5.2,2.9,9v18h-5.5V92.1c0-5.4-2.4-8.2-7.3-8.2c-2.3,0-4.1,0.9-5.6,2.7c-1.4,1.8-2.2,3.9-2.2,6.3v16.3h-5.5v-43H464.7
			z"/>
	</g>
</g>
<g id="guides" class="st17">
	<rect id="XMLID_80_" x="-0.6" y="272" class="st18" width="753.2" height="64"/>
	<rect id="XMLID_78_" x="-0.6" y="0" class="st18" width="753.2" height="64"/>
	<rect x="688.5" y="0" class="st18" width="64" height="336"/>
	<rect x="196.3" y="0" class="st18" width="48" height="336"/>
	<rect x="-0.5" y="0" class="st18" width="64" height="336"/>
</g>
</svg>
