<svg id="Layer_1" data-name="Layer 1" xmlns="http://www.w3.org/2000/svg" xmlns:xlink="http://www.w3.org/1999/xlink" viewBox="0 0 800 600"><defs><style>.cls-1{fill:url(#linear-gradient);}.cls-2{fill:url(#linear-gradient-2);}.cls-3{fill:#fff;}.cls-4{fill:url(#linear-gradient-3);}</style><linearGradient id="linear-gradient" x1="392.17" y1="116.09" x2="392.17" y2="288.94" gradientUnits="userSpaceOnUse"><stop offset="1" stop-color="#fff"/><stop offset="1" stop-color="#353132"/></linearGradient><linearGradient id="linear-gradient-2" x1="339.04" y1="5.11" x2="393.7" y2="5.11" gradientTransform="matrix(1.01, 0.04, 0.04, 1.16, 47.93, 199.75)" gradientUnits="userSpaceOnUse"><stop offset="0.66"/><stop offset="0.66" stop-color="#fff"/></linearGradient><linearGradient id="linear-gradient-3" x1="-2130.09" y1="205.9" x2="-2154.52" y2="75.63" gradientTransform="matrix(-1.01, 0.04, -0.04, 1.16, -1743.18, 199.75)" gradientUnits="userSpaceOnUse"><stop offset="0.53" stop-color="#fff"/><stop offset="0.53"/></linearGradient></defs><title>Artboard 3</title><path class="cls-1" d="M391,285a70.88,70.88,0,0,1-39.3-12.09c-11-6-45.77-30.84-45.43-103.49l.06-12.93,7.21,10.73,2.92,4.34c5-24.32,19.13-57.9,56.81-88.9l6.55-5.39-2-8.34-2.31-9.57,8.31,5.28c1.81,1.15,42.19,27.13,66.25,71.83l.32-1.07,3.36-11.36,4.17,11.09c14,37.13,11.77,66.27,7.94,83.35l3.36-1,8.86-2.52-4.24,8.18c-22.13,42.59-49.12,54.66-59.81,57.89A69.29,69.29,0,0,1,392.75,285L391,285ZM380.64,82.68l.66.71-.41-1.72-.25,1Z"/><path d="M381.68,68S428.14,97.5,451,147.29l3.18-10.75c15.42,41,10.85,71.69,6.06,87.68l10.05-2.85c-21.44,41.27-47.18,52.84-57.52,55.94A65,65,0,0,1,392.66,281c-.56,0-1.11,0-1.65,0a66.7,66.7,0,0,1-37.24-11.51c-9.38-5.08-43.85-28.62-43.52-100.07l8.34,12.39c.24-1.47.52-2.92.83-4.37,3.82-23.39,16.58-59,56.39-91.74l-5.72,23.6,11.22-20.13,7.41,7.94-7-29.14M369.32,50.75,374,69.88l1.43,5.92-4.62,3.8c-34.16,28.11-49.42,58.36-56,82.26l-12.31-18.31-.12,25.87C302,243.93,338,269.91,349.65,276.34A74.86,74.86,0,0,0,391,289c.61,0,1.23,0,1.84,0a73.15,73.15,0,0,0,22.4-4.1c6.31-1.91,16.08-6.07,27.14-15,13.41-10.88,25.17-25.95,35-44.8l8.5-16.35L471,212.89a130.32,130.32,0,0,0,1.73-23.24c-.23-18.1-4-36.91-11.12-55.91l-8.34-22.17-4.41,14.92a214.14,214.14,0,0,0-35.67-43.31A203.11,203.11,0,0,0,385.94,61.3L369.32,50.75Z"/><path d="M341,167.14s3.32-18.89,15.24-29.49c0,0,.67,15.24,3,21.87,0,0-5.64-6.3-6.3-9.61C352.91,149.91,346.62,154.22,341,167.14Z"/><path d="M383.39,132.35s5.64-14.91,5-20.21A45,45,0,0,1,401.62,132s-6-7-9.94-9.61C391.68,122.41,386.71,130,383.39,132.35Z"/><path class="cls-2" d="M386.57,211.16c4.76,20-3.17,39-17.7,42.44S338.7,243.68,334,223.7s3.16-39,17.69-42.44S381.81,191.18,386.57,211.16Z"/><path class="cls-3" d="M373.63,228a6.6,6.6,0,1,1-7.2-5.95A6.6,6.6,0,0,1,373.63,228Z"/><path class="cls-4" d="M399.45,211.16c-4.76,20,3.16,39,17.69,42.44s30.17-9.92,34.93-29.9-3.16-39-17.69-42.44S404.21,191.18,399.45,211.16Z"/><path class="cls-3" d="M412.39,228a6.6,6.6,0,1,0,7.19-5.95A6.59,6.59,0,0,0,412.39,228Z"/><path d="M386.25,184.47s-1.75-19.09,7-32.45c0,0,4.63,14.54,8.61,20.32,0,0-7.08-4.6-8.59-7.62C393.25,164.72,388.3,170.53,386.25,184.47Z"/><path d="M310.25,169.46s10.09,16.7,16.68,22.17c0,0-8.83-15.28-11.5-22.85Z"/><path d="M454.19,136.54s-1.55,12.51-8.59,20.65c0,0,4.81-14.43,4.81-19.61Z"/><polygon points="470.3 221.37 453.75 226.03 465.59 219 470.3 221.37"/><path class="cls-3" d="M309.17,340a.94.94,0,0,1-1.06,1.05H296a5.06,5.06,0,0,1-3.71-1.54,5.26,5.26,0,0,1-1.55-3.75V304a5.28,5.28,0,0,1,5.26-5.26h12.16a.94.94,0,0,1,1.06,1.05V303a.94.94,0,0,1-1.06,1.06H297a.93.93,0,0,0-1.05,1.05v29.58a.93.93,0,0,0,1.05,1h11.11a.94.94,0,0,1,1.06,1.05Z"/><path class="cls-3" d="M332.93,335.71a5.26,5.26,0,0,1-1.55,3.75,5.06,5.06,0,0,1-3.71,1.54H317.09a5.07,5.07,0,0,1-3.72-1.54,5.25,5.25,0,0,1-1.54-3.75V304a5.26,5.26,0,0,1,5.26-5.26h10.58a5.28,5.28,0,0,1,5.26,5.26Zm-5.26-1V305.08a.93.93,0,0,0-1.05-1.05h-8.48a.93.93,0,0,0-1.05,1.05v29.58a.93.93,0,0,0,1.05,1h8.48A.93.93,0,0,0,327.67,334.66Z"/><path class="cls-3" d="M354.06,340A.93.93,0,0,1,353,341H340.85a5.06,5.06,0,0,1-3.71-1.54,5.26,5.26,0,0,1-1.55-3.75V304a5.28,5.28,0,0,1,5.26-5.26H353a.93.93,0,0,1,1.05,1.05V303A.93.93,0,0,1,353,304H341.9a.93.93,0,0,0-1,1.05v29.58a.93.93,0,0,0,1,1H353a.93.93,0,0,1,1.05,1.05Z"/><path class="cls-3" d="M377.83,335.71a5.26,5.26,0,0,1-1.55,3.75,5.06,5.06,0,0,1-3.71,1.54H362a5.07,5.07,0,0,1-3.72-1.54,5.25,5.25,0,0,1-1.54-3.75V304a5.26,5.26,0,0,1,5.26-5.26h10.58a5.28,5.28,0,0,1,5.26,5.26Zm-5.26-1V305.08a.93.93,0,0,0-1.05-1.05H363a.93.93,0,0,0-1.05,1.05v29.58a.93.93,0,0,0,1.05,1h8.48A.93.93,0,0,0,372.57,334.66Z"/><path class="cls-3" d="M401.59,335.71a5.25,5.25,0,0,1-1.54,3.75,5.07,5.07,0,0,1-3.72,1.54H381.54a.93.93,0,0,1-1.05-1.05v-3.19a.93.93,0,0,1,1.05-1.05h13.74a.93.93,0,0,0,1.05-1V320.92a.93.93,0,0,0-1.05-1.05h-9.53a5.29,5.29,0,0,1-5.26-5.26V304a5.28,5.28,0,0,1,5.26-5.26h14.79a.93.93,0,0,1,1,1.05V303a.93.93,0,0,1-1,1.06H386.8a.93.93,0,0,0-1.05,1.05v8.48a.93.93,0,0,0,1.05,1.05h9.53a5.28,5.28,0,0,1,5.26,5.26Z"/><path class="cls-3" d="M492.24,335.55a5.23,5.23,0,0,1-1.54,3.74,5.09,5.09,0,0,1-3.72,1.55H461.44a5.08,5.08,0,0,1-3.72-1.55,5.24,5.24,0,0,1-1.55-3.74V303.86a5.29,5.29,0,0,1,5.27-5.26H487a5.28,5.28,0,0,1,5.26,5.26Z"/><path class="cls-3" d="M429.6,340a.93.93,0,0,1-1.05,1.05h-14.8a5.06,5.06,0,0,1-3.71-1.54,5.26,5.26,0,0,1-1.55-3.75V319.87a5.29,5.29,0,0,1,5.26-5.26h9.54a.93.93,0,0,0,1-1.05v-8.48a.93.93,0,0,0-1-1.05H409.55a.93.93,0,0,1-1.06-1.06v-3.15a.93.93,0,0,1,1.06-1.05h14.79A5.28,5.28,0,0,1,429.6,304v10.58a5.29,5.29,0,0,1-5.26,5.26h-9.53a.94.94,0,0,0-1.06,1.05v13.74a.94.94,0,0,0,1.06,1h13.74a.93.93,0,0,1,1.05,1.05Z"/><path class="cls-3" d="M453.36,335.71a5.25,5.25,0,0,1-1.54,3.75A5.08,5.08,0,0,1,448.1,341H433.31a.93.93,0,0,1-1.05-1.05V299.82a.93.93,0,0,1,1.05-1.05H448.1a5.26,5.26,0,0,1,5.26,5.26Zm-5.26-1V305.08a.93.93,0,0,0-1.05-1.05h-9.53v31.68h9.53A.93.93,0,0,0,448.1,334.66Z"/><path d="M484.09,308.92v-1.09a.9.9,0,0,0-.92-.91l-1.31,0a2.06,2.06,0,0,0-1.47.75L474.21,316,468,307.69a2,2,0,0,0-1.46-.75l-1.31,0a.9.9,0,0,0-.92.91v1.09a3.27,3.27,0,0,0,.54,1.66l6.69,9-6.69,9a3.3,3.3,0,0,0-.54,1.66v1.31a.92.92,0,0,0,.92.92h1.14a2,2,0,0,0,1.46-.74l6.36-8.59,6.36,8.59a2,2,0,0,0,1.46.74h1.14a.92.92,0,0,0,.92-.92v-1.31a3.31,3.31,0,0,0-.55-1.66l-6.68-9,6.69-9A3.27,3.27,0,0,0,484.09,308.92Z"/></svg>