<svg xmlns="http://www.w3.org/2000/svg" xmlns:xlink="http://www.w3.org/1999/xlink" viewBox="0 0 24 24" version="1.1" width="480" height="480" style="fill: rgb(0, 0, 0);">
<g id="surface1">
<path style=" " d="M 16 2 C 12.6875 2 10 3.121094 10 4.5 C 10 5.878906 12.6875 7 16 7 C 19.3125 7 22 5.878906 22 4.5 C 22 3.121094 19.3125 2 16 2 Z M 10 5.5 L 10 7.5 C 10 8.898438 12.699219 10 16 10 C 19.300781 10 22 8.898438 22 7.5 L 22 5.5 C 22 6.898438 19.300781 8 16 8 C 12.699219 8 10 6.898438 10 5.5 Z M 22 8.40625 C 22 9.90625 19.300781 11 16 11 C 12.699219 11 10 9.898438 10 8.5 L 10 10.09375 C 12.398438 10.394531 14.507813 11.40625 14.90625 12.90625 L 16 12.90625 C 19.300781 12.90625 22 11.804688 22 10.40625 Z M 8 11 C 4.699219 11 2 12.101563 2 13.5 C 2 14.898438 4.699219 16 8 16 C 11.300781 16 14 14.898438 14 13.5 C 14 12.101563 11.300781 11 8 11 Z M 22 11.5 C 22 12.898438 19.300781 14 16 14 L 15 14 L 15 16 L 16 16 C 19.300781 16 22 14.898438 22 13.5 Z M 2 14.5 L 2 16.5 C 2 17.898438 4.699219 19 8 19 C 11.300781 19 14 17.898438 14 16.5 L 14 14.5 C 14 15.898438 11.300781 17 8 17 C 4.699219 17 2 15.898438 2 14.5 Z M 22 14.5 C 22 15.898438 19.300781 17 16 17 L 15 17 L 15 19 L 16 19 C 19.300781 19 22 17.898438 22 16.5 Z M 2 17.5 L 2 19.5 C 2 20.898438 4.699219 22 8 22 C 11.300781 22 14 20.898438 14 19.5 L 14 17.5 C 14 18.898438 11.300781 20 8 20 C 4.699219 20 2 18.898438 2 17.5 Z "/>
</g>
</svg>