<?xml version="1.0" encoding="UTF-8"?>
<svg xmlns="http://www.w3.org/2000/svg" xmlns:xlink="http://www.w3.org/1999/xlink" viewBox="0 0 24 24" version="1.1" width="480px" height="480px">
<g id="surface1">
<path style=" " d="M 13.5625 2.25 L 7.5625 8.25 C 7.210938 8.601563 7 9.097656 7 9.59375 L 7 19.125 C 7 20.160156 7.839844 21 8.875 21 L 17.03125 21 C 17.773438 21 18.449219 20.554688 18.75 19.875 L 21.75 13.125 C 21.914063 12.75 22 12.347656 22 11.9375 L 22 11 C 22 9.964844 21.035156 9 20 9 L 14 9 C 14 9 15.4375 5.148438 15.4375 4.46875 C 15.4375 2.710938 13.5625 2.25 13.5625 2.25 Z M 2 9 L 2 21 L 5 21 L 5 9 Z "/>
</g>
</svg>
