<?xml version="1.0" encoding="UTF-8"?>
<svg xmlns="http://www.w3.org/2000/svg" xmlns:xlink="http://www.w3.org/1999/xlink" viewBox="0 0 24 24" version="1.1" width="480px" height="480px">
<g id="surface1">
<path style=" " d="M 12 2 C 7.128906 2 3 5.484375 3 10 C 3 11.996094 3.851563 13.871094 4 14.1875 L 4 15 C 4 16.644531 5.355469 18 7 18 C 7.554688 18 8 18.445313 8 19 C 8 20.644531 9.355469 22 11 22 L 13 22 C 14.644531 22 16 20.644531 16 19 C 16 18.445313 16.445313 18 17 18 C 18.644531 18 20 16.644531 20 15 L 20 14.1875 C 20.148438 13.871094 21 11.996094 21 10 C 21 5.484375 16.871094 2 12 2 Z M 12 4 C 15.929688 4 19 6.714844 19 10 C 19 11.429688 18.09375 13.59375 18.09375 13.59375 L 18 13.78125 L 18 15 C 18 15.554688 17.554688 16 17 16 C 15.355469 16 14 17.355469 14 19 C 14 19.554688 13.554688 20 13 20 L 11 20 C 10.445313 20 10 19.554688 10 19 C 10 17.355469 8.644531 16 7 16 C 6.445313 16 6 15.554688 6 15 L 6 13.78125 L 5.90625 13.59375 C 5.90625 13.59375 5 11.429688 5 10 C 5 6.714844 8.070313 4 12 4 Z M 8.46875 10.84375 C 7.667969 10.695313 7 11.617188 7 12.59375 C 7 13.792969 7.800781 15.304688 9.5 15.40625 C 10.398438 15.40625 10.886719 14.789063 11.1875 13.6875 C 10.886719 13.386719 9.8125 12.105469 9.3125 11.40625 C 9.039063 11.082031 8.734375 10.894531 8.46875 10.84375 Z M 15.53125 10.84375 C 15.265625 10.894531 14.960938 11.082031 14.6875 11.40625 C 14.1875 12.105469 13.113281 13.386719 12.8125 13.6875 C 13.113281 14.789063 13.601563 15.40625 14.5 15.40625 C 16.199219 15.304688 17 13.792969 17 12.59375 C 17 11.617188 16.332031 10.695313 15.53125 10.84375 Z M 12 15.1875 C 11.5 15.289063 10.6875 16.613281 10.6875 17.3125 C 10.6875 17.613281 10.988281 17.8125 11.1875 17.8125 C 11.585938 17.8125 11.898438 17.394531 12 17.09375 C 12.101563 17.394531 12.3125 17.8125 12.8125 17.8125 C 13.113281 17.8125 13.3125 17.613281 13.3125 17.3125 C 13.3125 16.613281 12.5 15.289063 12 15.1875 Z "/>
</g>
</svg>
