<?xml version="1.0" encoding="UTF-8"?>
<svg xmlns="http://www.w3.org/2000/svg" xmlns:xlink="http://www.w3.org/1999/xlink" viewBox="0 0 24 24" version="1.1" width="480px" height="480px">
<g id="surface1">
<path style=" " d="M 7.5 5 C 5.601563 5 4 6.601563 4 8.5 C 4 10.398438 5.601563 12 7.5 12 C 9.398438 12 11 10.398438 11 8.5 C 11 6.601563 9.398438 5 7.5 5 Z M 16.5 5 C 14.566406 5 13 6.566406 13 8.5 C 13 10.433594 14.566406 12 16.5 12 C 18.433594 12 20 10.433594 20 8.5 C 20 6.566406 18.433594 5 16.5 5 Z M 7.5 14 C 2.601563 14 1 18 1 18 L 1 20 L 14 20 L 14 18 C 14 18 12.398438 14 7.5 14 Z M 16.5 14 C 15 14 13.804688 14.40625 12.90625 14.90625 C 14.304688 16.105469 14.898438 17.492188 15 17.59375 L 15.09375 17.8125 L 15.09375 20 L 23.09375 20 L 23.09375 18 C 22.992188 18 21.398438 14 16.5 14 Z "/>
</g>
</svg>
