<svg xmlns="http://www.w3.org/2000/svg" xmlns:xlink="http://www.w3.org/1999/xlink" viewBox="0 0 24 24" version="1.1" width="480" height="480" style="fill: rgb(0, 0, 0);">
<g id="surface1">
<path style=" " d="M 10 2 L 10 3.25 C 6.609375 3.964844 3.964844 6.609375 3.25 10 L 2 10 L 2 14 L 6 14 L 6 10 L 5.3125 10 C 5.957031 7.722656 7.722656 5.957031 10 5.3125 L 10 6 L 14 6 L 14 2 Z M 15 3.5 L 15 5.6875 C 16.785156 6.539063 18.105469 8.132813 18.65625 10 L 18 10 L 18 14 L 22 14 L 22 10 L 20.71875 10 C 20.015625 6.972656 17.796875 4.582031 15 3.5 Z M 3.5 15 C 4.492188 17.886719 6.957031 20.121094 10 20.75 L 10 22 L 14 22 L 14 18 L 10 18 L 10 18.6875 C 8.074219 18.144531 6.542969 16.796875 5.6875 15 Z M 18.3125 15 C 17.613281 16.398438 16.398438 17.613281 15 18.3125 L 15 20.5 C 17.5 19.601563 19.601563 17.601563 20.5 15 Z "/>
</g>
</svg>