<svg xmlns="http://www.w3.org/2000/svg" xmlns:xlink="http://www.w3.org/1999/xlink" viewBox="0 0 24 24" version="1.1" width="480" height="480" style="fill: rgb(0, 0, 0);">
<g id="surface1">
<path style=" " d="M 21 1.90625 L 18.46875 4.4375 C 16.707031 2.941406 14.472656 2 12 2 C 6.464844 2 2 6.464844 2 12 C 2 17.535156 6.464844 22 12 22 C 17.535156 22 22 17.535156 22 12 L 20 12 C 20 16.464844 16.464844 20 12 20 C 7.535156 20 4 16.464844 4 12 C 4 7.535156 7.535156 4 12 4 C 13.921875 4 15.660156 4.695313 17.0625 5.84375 L 14.90625 8 L 21 8 Z "/>
</g>
</svg>