<?xml version="1.0" encoding="UTF-8"?>
<svg xmlns="http://www.w3.org/2000/svg" xmlns:xlink="http://www.w3.org/1999/xlink" viewBox="0 0 24 24" version="1.1" width="480px" height="480px">
<g id="surface1">
<path style=" " d="M 3.5 2 L 7.34375 9.75 C 5.898438 11.027344 5 12.894531 5 15 C 5 18.898438 8.101563 22 12 22 C 15.898438 22 19 18.898438 19 15 C 19 12.886719 18.078125 11.027344 16.625 9.75 L 20.5 2 L 18.3125 2 L 14.96875 8.625 C 14.269531 8.304688 13.492188 8.109375 12.6875 8.03125 L 15.6875 2 L 13.5 2 L 10.4375 8.1875 C 9.996094 8.285156 9.558594 8.417969 9.15625 8.59375 L 5.8125 2 Z M 8.5 2 L 10.1875 5.40625 L 11.1875 3.40625 L 10.5 2 Z M 12 10 C 14.800781 10 17 12.199219 17 15 C 17 17.800781 14.800781 20 12 20 C 9.199219 20 7 17.800781 7 15 C 7 12.199219 9.199219 10 12 10 Z M 10 12 L 10 13 L 11 13 L 11 17 L 10 17 L 10 18 L 14 18 L 14 17 L 13 17 L 13 13 L 14 13 L 14 12 Z "/>
</g>
</svg>
