<svg xmlns="http://www.w3.org/2000/svg" xmlns:xlink="http://www.w3.org/1999/xlink" viewBox="0 0 24 24" version="1.1" width="480" height="480" style="fill: rgb(0, 0, 0);">
<g id="surface1">
<path style=" " d="M 7 7 C 4.253906 7 2 9.253906 2 12 C 2 14.800781 4.199219 17 7 17 C 9 17 10.304688 15.988281 11.40625 14.6875 C 11.007813 14.085938 10.613281 13.601563 10.3125 13 C 10.3125 13 10.289063 12.90625 10.1875 12.90625 C 9.289063 14.105469 8.398438 15 7 15 C 5.300781 15 4 13.699219 4 12 C 4 10.34375 5.34375 9 7 9 C 7.984375 9 8.628906 9.339844 9.28125 9.96875 C 9.933594 10.597656 10.53125 11.53125 11.15625 12.53125 C 11.78125 13.53125 12.433594 14.597656 13.34375 15.46875 C 14.253906 16.339844 15.484375 17 17 17 C 19.746094 17 22 14.746094 22 12 C 22 9.199219 19.800781 7 17 7 C 15 7 13.695313 8.011719 12.59375 9.3125 C 12.992188 9.914063 13.289063 10.40625 13.6875 10.90625 C 13.6875 11.007813 13.8125 10.992188 13.8125 11.09375 C 14.710938 9.792969 15.601563 9 17 9 C 18.699219 9 20 10.300781 20 12 C 20 13.65625 18.65625 15 17 15 C 16.015625 15 15.371094 14.660156 14.71875 14.03125 C 14.066406 13.402344 13.46875 12.46875 12.84375 11.46875 C 12.21875 10.46875 11.566406 9.402344 10.65625 8.53125 C 9.746094 7.660156 8.515625 7 7 7 Z "/>
</g>
</svg>