<svg xmlns="http://www.w3.org/2000/svg" xmlns:xlink="http://www.w3.org/1999/xlink" viewBox="0 0 24 24" version="1.1" width="480" height="480" style="fill: rgb(0, 0, 0);">
<g id="surface1">
<path style=" " d="M 12 7.101563 L 13 9.398438 L 13.5 10.5 L 14.699219 10.601563 L 17.199219 10.800781 L 15.300781 12.398438 L 14.398438 13.199219 L 14.699219 14.398438 L 15.300781 16.800781 L 13 15.601563 L 12 15 L 11 15.601563 L 8.898438 16.898438 L 9.800781 13.300781 L 8.898438 12.5 L 7 10.898438 L 9.5 10.699219 L 10.699219 10.601563 L 11 9.398438 L 12 7.101563 M 12 2 L 9.199219 8.601563 L 2 9.300781 L 7.398438 14 L 5.800781 21 L 12 17.300781 L 18.199219 21 L 16.601563 14 L 22 9.300781 L 14.800781 8.699219 Z "/>
</g>
</svg>