<?xml version="1.0"?>
<svg xmlns="http://www.w3.org/2000/svg" viewBox="0 0 24 24" width="480px" height="480px">
    <path d="M 12 0 C 10.7 0 9.5992188 0.8 9.1992188 2 L 5 2 C 4.316 2 3.7106094 2.348 3.3496094 2.875 C 3.1296094 3.196 3 3.584 3 4 L 3 20 C 3 21.1 3.9 22 5 22 L 19 22 C 20.1 22 21 21.1 21 20 L 21 4 C 21 2.9 20.1 2 19 2 L 14.800781 2 C 14.400781 0.8 13.3 0 12 0 z M 12 2 C 12.6 2 13 2.4 13 3 C 13 3.6 12.6 4 12 4 C 11.4 4 11 3.6 11 3 C 11 2.4 11.4 2 12 2 z M 5 4 L 7 4 L 7 6 L 17 6 L 17 4 L 19 4 L 19 20 L 5 20 L 5 4 z M 14.621094 9 C 14.520844 9 14.420813 9.0489375 14.320312 9.1484375 L 13.617188 9.8457031 L 15.222656 11.435547 L 15.925781 10.738281 C 16.025781 10.639281 16.025781 10.341578 15.925781 10.142578 L 14.921875 9.1484375 C 14.821375 9.0489375 14.721344 9 14.621094 9 z M 13.216797 10.242188 L 8 15.410156 L 8 17 L 9.6054688 17 L 14.820312 11.832031 L 13.216797 10.242188 z"/>
</svg>
