<?xml version="1.0" encoding="UTF-8"?>
<svg xmlns="http://www.w3.org/2000/svg" xmlns:xlink="http://www.w3.org/1999/xlink" viewBox="0 0 24 24" version="1.1" width="480px" height="480px">
<g id="surface1">
<path style=" " d="M 12 2 C 6.476563 2 2 6.476563 2 12 C 2 17.523438 6.476563 22 12 22 C 17.523438 22 22 17.523438 22 12 C 22 10.089844 21.460938 8.300781 20.53125 6.78125 L 19.0625 8.28125 C 19.65625 9.398438 20 10.648438 20 12 C 20 16.417969 16.417969 20 12 20 C 7.582031 20 4 16.417969 4 12 C 4 7.582031 7.582031 4 12 4 C 13.363281 4 14.628906 4.367188 15.75 4.96875 L 17.21875 3.5 C 15.695313 2.5625 13.921875 2 12 2 Z M 20.5 2.09375 L 12.5 10.0625 C 12.335938 10.019531 12.179688 10 12 10 C 10.894531 10 10 10.894531 10 12 C 10 13.105469 10.894531 14 12 14 C 13.105469 14 14 13.105469 14 12 C 14 11.820313 13.980469 11.664063 13.9375 11.5 L 21.90625 3.5 Z M 12 6 C 8.6875 6 6 8.6875 6 12 C 6 15.3125 8.6875 18 12 18 C 15.3125 18 18 15.3125 18 12 C 18 11.207031 17.84375 10.472656 17.5625 9.78125 L 15.9375 11.375 C 15.972656 11.574219 16 11.789063 16 12 C 16 14.210938 14.210938 16 12 16 C 9.789063 16 8 14.210938 8 12 C 8 9.789063 9.789063 8 12 8 C 12.222656 8 12.445313 8.023438 12.65625 8.0625 L 14.25 6.46875 C 13.550781 6.179688 12.804688 6 12 6 Z "/>
</g>
</svg>
