<?xml version="1.0" encoding="UTF-8"?>
<svg xmlns="http://www.w3.org/2000/svg" xmlns:xlink="http://www.w3.org/1999/xlink" viewBox="0 0 24 24" version="1.1" width="480px" height="480px">
<g id="surface1">
<path style=" " d="M 8 4 L 8 15.121094 C 7.410156 14.972656 6.730469 14.960938 6 15.132813 C 3.789063 15.664063 2 17.597656 2 19.457031 C 2 21.316406 3.789063 22.394531 6 21.863281 C 8.148438 21.351563 9.890625 19.503906 9.980469 17.695313 L 10 17.695313 L 10 6.691406 L 19 5.308594 L 19 13.121094 C 18.410156 12.972656 17.730469 12.960938 17 13.132813 C 14.789063 13.664063 13 15.597656 13 17.457031 C 13 19.316406 14.789063 20.394531 17 19.863281 C 19.148438 19.351563 20.890625 17.503906 20.980469 15.695313 L 21 15.695313 L 21 2 Z "/>
</g>
</svg>
