<?xml version="1.0" encoding="iso-8859-1"?>
<!-- Generator: Adobe Illustrator 16.0.0, SVG Export Plug-In . SVG Version: 6.00 Build 0)  -->
<!DOCTYPE svg PUBLIC "-//W3C//DTD SVG 1.1//EN" "http://www.w3.org/Graphics/SVG/1.1/DTD/svg11.dtd">
<svg version="1.1" id="Capa_1" xmlns="http://www.w3.org/2000/svg" xmlns:xlink="http://www.w3.org/1999/xlink" x="0px" y="0px"
	 width="580.062px" height="580.061px" viewBox="0 0 580.062 580.061" style="enable-background:new 0 0 580.062 580.061;"
	 xml:space="preserve">
<g>
	<g>
		<path d="M55.341,249.771c0.979,0,1.968-0.04,2.932-0.122c0.937-0.08,1.784-0.582,2.298-1.365c0.517-0.784,0.646-1.76,0.349-2.65
			c-0.636-1.913-1.212-3.834-1.784-5.747c-1.322-4.416-2.689-8.978-4.749-13.228c-2.007-4.149-4.691-7.904-7.289-11.54
			c-1.105-1.548-2.212-3.097-3.262-4.669c-0.077-0.116-0.162-0.227-0.254-0.331l-11.05-12.479c-0.058-0.067-0.123-0.132-0.187-0.193
			c-7.871-7.457-17.258-9.899-28.929-11.27c-0.12-0.015-0.239-0.021-0.355-0.021c-0.759,0-1.497,0.282-2.062,0.799
			c-0.655,0.597-1.019,1.45-0.998,2.335C0.729,219.248,28.655,249.771,55.341,249.771z"/>
		<path d="M71.657,48.515c-0.138-0.019-0.279-0.028-0.414-0.028c-0.722,0-1.426,0.254-1.982,0.729
			c-11.916,10.125-19.826,26.766-21.16,44.511c-1.141,15.168,2.794,29.137,10.796,38.327c0.581,0.667,1.423,1.049,2.307,1.049
			c0.006,0,0.015,0,0.021,0c0.894-0.006,1.738-0.401,2.313-1.083c24.275-28.678,27.721-56.329,10.236-82.188
			C73.291,49.112,72.52,48.634,71.657,48.515z"/>
		<path d="M53.468,197.589c0.285,0.086,0.579,0.129,0.872,0.129c0.514,0,1.028-0.132,1.487-0.386
			c0.719-0.401,1.249-1.074,1.466-1.867c9.018-32.962-4.599-65.753-31.677-76.276c-0.358-0.138-0.734-0.208-1.108-0.208
			c-0.489,0-0.979,0.116-1.423,0.352c-0.783,0.41-1.349,1.142-1.554,2.001C13.493,155.123,28.116,190.046,53.468,197.589z"/>
		<path d="M56.574,308.398c0.985,0,1.977-0.043,2.944-0.126c0.887-0.076,1.695-0.535,2.218-1.258c0.521-0.722,0.701-1.634,0.496-2.5
			c-3.118-13.065-6.396-24.706-14.752-34.477c-10.744-18.834-29.263-23.253-42.265-24.939c-0.132-0.019-0.263-0.024-0.392-0.024
			c-0.75,0-1.481,0.275-2.047,0.783c-0.664,0.597-1.034,1.454-1.013,2.347C2.449,278.021,30.114,308.398,56.574,308.398z"/>
		<path d="M202.748,473.087c-0.089-0.894-0.569-1.705-1.307-2.216c-12.607-8.688-27.696-13.47-42.485-13.47
			c-17.176,0-31.989,6.456-40.646,17.711c-0.501,0.655-0.719,1.481-0.603,2.298c0.116,0.817,0.557,1.552,1.224,2.038
			c11.484,8.391,25.814,13.011,40.355,13.011c16.705,0,32.24-6.175,42.623-16.946C202.53,474.868,202.839,473.981,202.748,473.087z"
			/>
		<path d="M154.476,441.199c0.006-0.924-0.407-1.806-1.123-2.39c-13.994-11.43-30.594-17.724-46.739-17.724
			c-14.25,0-26.86,4.789-36.469,13.847c-0.63,0.594-0.979,1.429-0.961,2.295c0.018,0.866,0.404,1.683,1.062,2.249
			c12.834,11.064,28.85,17.157,45.102,17.157c14.098,0,27.231-4.517,37.975-13.063C154.047,442.998,154.47,442.125,154.476,441.199z
			"/>
		<path d="M87.055,365.473c0.835-0.227,1.54-0.796,1.931-1.567c0.392-0.771,0.44-1.674,0.131-2.484
			c-5.489-14.317-14.174-24.477-26.545-31.056l-0.413-0.272l-6.157-4.049c-6.637-4.95-14.208-7.258-23.813-7.258
			c-4.938,0-9.981,0.594-15.147,1.258c-0.915,0.116-1.726,0.64-2.212,1.423c-0.486,0.783-0.59,1.744-0.291,2.613
			c8.513,24.538,34.217,43.042,59.789,43.042C78.713,367.12,82.994,366.565,87.055,365.473z"/>
		<path d="M77.909,134.798c-1.567,2.874-2.007,6.074-2.433,9.171c-0.181,1.307-0.349,2.543-0.6,3.712
			c-0.171,0.805-0.009,1.643,0.444,2.326c0.453,0.685,1.166,1.156,1.971,1.312c1.239,0.239,2.527,0.606,3.896,0.995
			c2.57,0.731,5.226,1.487,7.938,1.487c0.786,0,1.548-0.064,2.271-0.196c18.229-3.262,33.345-12.898,44.924-28.645
			c1.649-2.243,2.644-4.856,3.604-7.384c0.435-1.141,0.884-2.326,1.396-3.476c0.343-0.777,0.349-1.662,0.015-2.442
			s-0.979-1.386-1.778-1.674c-4.477-1.606-9.336-2.423-14.443-2.423C106.067,107.561,86.654,118.76,77.909,134.798z"/>
		<path d="M105.874,372.508c0.41,0,0.823-0.083,1.218-0.255c16.396-7.129,21.065-21.79,23.149-32.193
			c2.237-11.16,1.827-22.764,1.132-32.642c-0.392-5.566-3.55-9.309-7.861-9.309c-1.913,0-4.847,0.777-7.953,4.474
			c-0.844,1.004-1.707,2.011-2.573,3.023c-5.003,5.833-10.178,11.864-12.919,18.987c-4.945,12.84-9.033,29.749,3.338,46.659
			C103.995,372.064,104.922,372.508,105.874,372.508z"/>
		<path d="M73.27,314.854c0.153,0.802,0.618,1.509,1.297,1.962c0.508,0.343,1.105,0.523,1.71,0.523c0.199,0,0.398-0.019,0.597-0.059
			c1.156-0.229,2.405-0.37,3.724-0.52c3.201-0.361,6.509-0.734,9.364-2.464c17.118-10.373,27.84-26.062,31.873-46.634
			c0.443-2.264,0.119-4.501-0.288-7.335c-0.22-1.518-0.468-3.24-0.664-5.339c-0.098-1.038-0.713-1.953-1.637-2.43
			c-0.44-0.229-0.924-0.343-1.408-0.343c-0.526,0-1.053,0.135-1.521,0.404l-12.204,6.995l-8.602,4.93
			c-0.281,0.07-0.554,0.181-0.814,0.331c-12.574,7.372-20.306,19.141-23.635,35.982c-0.683,3.448,0.291,6.857,1.233,10.156
			C72.673,312.364,73.037,313.636,73.27,314.854z"/>
		<path d="M145.611,415.278c4.245,0,7.148-3.782,9.205-7.078c7.889-12.644,10.08-27.289,6.891-46.09
			c-0.854-5.043-2.831-9.74-4.92-14.712c-0.952-2.259-1.934-4.594-2.831-7.023c-0.331-0.891-1.056-1.579-1.961-1.86
			c-0.297-0.092-0.603-0.138-0.909-0.138c-0.625,0-1.242,0.189-1.763,0.561c-10.343,7.292-17.794,20.646-19.933,35.722
			c-1.937,13.654,0.841,26.724,7.433,34.958C138.937,412.251,141.844,415.278,145.611,415.278z"/>
		<path d="M182.16,373.475c-0.566-0.472-1.264-0.713-1.961-0.713c-0.6,0-1.203,0.174-1.723,0.532
			c-8.443,5.759-13.498,16.687-14.238,30.774c-0.875,16.655,4.669,33.51,13.482,40.991c2.607,2.213,4.872,3.244,7.124,3.244
			c4.397,0,6.91-4.027,7.736-5.353c7.126-11.429,6.601-24.072,5.584-32.592C196.655,397.722,194.051,383.411,182.16,373.475z"/>
		<path d="M97.676,97.285c2.268,0.413,4.608,0.625,6.952,0.625c28.014,0,55.279-29.523,57.121-52.797
			c0.131-1.655-1.08-3.112-2.729-3.287c-1.76-0.184-3.546-0.278-5.312-0.278c-26.956,0-51.543,21.885-58.468,52.042
			c-0.187,0.814-0.034,1.671,0.425,2.369C96.131,96.655,96.856,97.135,97.676,97.285z"/>
		<path d="M74.463,260.089c0.496,0.031,0.995,0.043,1.497,0.043c14.403,0,29.979-11.876,39.03-23.647
			c8.507-11.062,12.047-22.436,9.715-31.2c-0.336-1.267-1.441-2.176-2.748-2.268c-1.098-0.077-2.194-0.113-3.259-0.113
			c-10.272,0-19.027,3.568-26.034,10.603c-16.408,9.538-26.157,30.263-20.894,44.581C72.192,259.233,73.248,260.016,74.463,260.089z
			"/>
		<path d="M76.373,206.699h0.174c21.123,0,48.663-23.455,52.62-44.813c0.242-1.31-0.389-2.623-1.561-3.253
			c-3.234-1.738-7.047-2.62-11.328-2.62c-19.397,0-47.366,19.385-50.487,39.976c-0.508,3.341,0.021,5.872,1.616,7.739
			C69.61,206.31,73.175,206.677,76.373,206.699z"/>
		<path d="M122.548,405.834c0.78-0.486,1.3-1.301,1.417-2.213c0.116-0.911-0.187-1.829-0.82-2.493
			c-14.731-15.463-33.678-24.33-51.98-24.33c-11.178,0-21.555,3.354-30.006,9.696c-0.683,0.512-1.117,1.286-1.206,2.133
			c-0.088,0.848,0.181,1.692,0.744,2.335c12.886,14.691,31.974,23.461,51.059,23.461
			C102.891,414.417,113.539,411.45,122.548,405.834z"/>
		<path d="M577.001,186.157c-0.119,0-0.239,0.006-0.355,0.021c-11.671,1.371-21.059,3.81-28.929,11.27
			c-0.064,0.061-0.129,0.125-0.187,0.193l-0.426,0.48L536.48,210.12c-0.092,0.104-0.178,0.214-0.254,0.331
			c-1.05,1.576-2.157,3.121-3.263,4.669c-2.595,3.636-5.281,7.39-7.289,11.54c-2.056,4.25-3.424,8.816-4.749,13.228
			c-0.572,1.913-1.147,3.834-1.783,5.747c-0.297,0.89-0.169,1.866,0.349,2.65c0.517,0.783,1.364,1.285,2.298,1.365
			c0.964,0.08,1.949,0.122,2.932,0.122c26.683,0,54.611-30.523,55.34-60.478c0.021-0.888-0.343-1.738-0.997-2.335
			C578.494,186.438,577.76,186.157,577.001,186.157z"/>
		<path d="M518.833,133.103c0.006,0,0.016,0,0.021,0c0.885,0,1.726-0.382,2.308-1.049c8.002-9.189,11.934-23.158,10.795-38.327
			c-1.334-17.745-9.244-34.382-21.159-44.511c-0.558-0.474-1.261-0.728-1.983-0.728c-0.138,0-0.275,0.009-0.413,0.027
			c-0.862,0.119-1.634,0.597-2.12,1.319c-17.481,25.857-14.039,53.51,10.235,82.188
			C517.095,132.702,517.942,133.097,518.833,133.103z"/>
		<path d="M522.769,195.465c0.217,0.796,0.746,1.466,1.466,1.867c0.459,0.254,0.97,0.386,1.487,0.386
			c0.293,0,0.587-0.043,0.872-0.129c25.352-7.542,39.976-42.466,31.937-76.258c-0.205-0.859-0.771-1.591-1.555-2.001
			c-0.443-0.232-0.93-0.352-1.423-0.352c-0.376,0-0.749,0.071-1.107,0.208C527.367,129.709,513.751,162.503,522.769,195.465z"/>
		<path d="M575.241,245.074c-0.132,0-0.264,0.009-0.392,0.024c-27.103,3.51-37.108,15.888-42.265,24.939
			c-8.357,9.771-11.635,21.411-14.752,34.477c-0.209,0.866-0.028,1.778,0.495,2.501c0.521,0.722,1.331,1.181,2.219,1.257
			c0.967,0.083,1.958,0.126,2.943,0.126c26.463,0,54.126-30.38,54.814-60.193c0.021-0.894-0.35-1.75-1.014-2.347
			C576.722,245.35,575.991,245.074,575.241,245.074z"/>
		<path d="M421.105,457.402c-14.792,0-29.881,4.785-42.487,13.47c-0.741,0.511-1.218,1.318-1.307,2.216
			c-0.092,0.894,0.217,1.783,0.841,2.429c10.383,10.769,25.919,16.947,42.623,16.947c14.541,0,28.871-4.621,40.355-13.012
			c0.667-0.486,1.107-1.221,1.224-2.038c0.116-0.816-0.101-1.646-0.603-2.298C453.095,463.858,438.281,457.402,421.105,457.402z"/>
		<path d="M473.45,421.088c-16.15,0-32.751,6.295-46.741,17.724c-0.716,0.584-1.129,1.466-1.123,2.39s0.432,1.8,1.153,2.375
			c10.744,8.546,23.877,13.062,37.975,13.062c16.252,0,32.268-6.092,45.102-17.157c0.654-0.566,1.04-1.383,1.062-2.249
			s-0.33-1.701-0.961-2.295C500.445,426.005,487.496,421.088,473.45,421.088z"/>
		<path d="M563.017,320.042c-5.165-0.661-10.208-1.258-15.145-1.258c-9.604,0-17.176,2.307-23.812,7.258l-6.156,4.049l-0.413,0.272
			c-12.369,6.579-21.054,16.738-26.546,31.056c-0.309,0.808-0.263,1.711,0.132,2.484c0.395,0.774,1.095,1.341,1.931,1.567
			c4.061,1.092,8.342,1.646,12.724,1.646c25.572,0,51.276-18.504,59.789-43.042c0.303-0.872,0.196-1.829-0.291-2.613
			C564.742,320.68,563.932,320.161,563.017,320.042z"/>
		<path d="M440.136,117.579c0.961,2.528,1.956,5.138,3.604,7.384c11.583,15.747,26.696,25.386,44.928,28.645
			c0.722,0.128,1.483,0.196,2.271,0.196c2.711,0,5.367-0.756,7.938-1.487c1.364-0.389,2.656-0.756,3.896-0.995
			c0.808-0.156,1.518-0.63,1.971-1.312c0.452-0.686,0.611-1.524,0.443-2.326c-0.248-1.169-0.419-2.405-0.6-3.712
			c-0.426-3.097-0.866-6.3-2.433-9.171c-8.746-16.038-28.155-27.237-47.204-27.237c-5.11,0-9.969,0.814-14.443,2.423
			c-0.798,0.288-1.444,0.894-1.777,1.674c-0.334,0.78-0.33,1.665,0.016,2.442C439.252,115.253,439.701,116.438,440.136,117.579z"/>
		<path d="M472.967,372.253c0.395,0.172,0.811,0.255,1.218,0.255c0.955,0,1.882-0.447,2.473-1.255
			c12.371-16.913,8.283-33.819,3.338-46.659c-2.741-7.124-7.916-13.155-12.919-18.987c-0.866-1.013-1.731-2.017-2.573-3.023
			c-3.106-3.696-6.037-4.474-7.953-4.474c-4.309,0-7.47,3.742-7.861,9.309c-0.694,9.878-1.104,21.479,1.133,32.642
			C451.901,350.466,456.571,365.125,472.967,372.253z"/>
		<path d="M499.467,316.761c1.318,0.149,2.563,0.287,3.724,0.52c0.199,0.04,0.397,0.059,0.597,0.059
			c0.605,0,1.199-0.181,1.711-0.523c0.676-0.456,1.144-1.163,1.297-1.962c0.232-1.215,0.597-2.487,0.982-3.837
			c0.942-3.299,1.916-6.707,1.233-10.156c-3.329-16.842-11.059-28.614-23.636-35.982c-0.26-0.153-0.535-0.263-0.813-0.331
			l-8.603-4.93l-12.203-6.995c-0.471-0.269-0.994-0.404-1.521-0.404c-0.483,0-0.967,0.113-1.407,0.343
			c-0.925,0.478-1.543,1.396-1.638,2.43c-0.195,2.102-0.446,3.822-0.664,5.34c-0.41,2.833-0.731,5.07-0.287,7.334
			c4.029,20.573,14.755,36.261,31.869,46.634C492.958,316.026,496.266,316.4,499.467,316.761z"/>
		<path d="M434.447,415.278c3.771,0,6.674-3.026,8.785-5.661c6.592-8.234,9.37-21.301,7.433-34.958
			c-2.139-15.076-9.59-28.43-19.933-35.722c-0.523-0.367-1.138-0.561-1.763-0.561c-0.303,0-0.608,0.046-0.908,0.138
			c-0.906,0.281-1.631,0.97-1.962,1.86c-0.899,2.43-1.882,4.765-2.83,7.023c-2.09,4.972-4.067,9.666-4.921,14.712
			c-3.186,18.798-0.994,33.442,6.892,46.09C427.3,411.496,430.203,415.278,434.447,415.278z"/>
		<path d="M401.586,373.294c-0.523-0.355-1.123-0.532-1.723-0.532c-0.7,0-1.398,0.238-1.961,0.713
			c-11.892,9.936-14.496,24.247-16.001,36.885c-1.017,8.52-1.542,21.163,5.587,32.592c0.827,1.325,3.339,5.353,7.736,5.353
			c2.252,0,4.517-1.031,7.123-3.244c8.813-7.479,14.358-24.336,13.482-40.991C415.084,389.981,410.028,379.053,401.586,373.294z"/>
		<path d="M482.383,97.285c0.822-0.15,1.548-0.63,2.007-1.328c0.459-0.698,0.612-1.555,0.426-2.369
			c-6.922-30.153-31.512-52.042-58.465-52.042c-1.769,0-3.556,0.095-5.312,0.278c-1.649,0.175-2.861,1.631-2.729,3.287
			c1.845,23.271,29.106,52.797,57.12,52.797C477.774,97.91,480.115,97.698,482.383,97.285z"/>
		<path d="M487.392,213.507c-7.014-7.038-15.769-10.603-26.034-10.603c-1.062,0-2.16,0.04-3.259,0.113
			c-1.307,0.089-2.412,1-2.748,2.268c-2.332,8.767,1.212,20.138,9.715,31.2c9.052,11.771,24.627,23.647,39.031,23.647
			c0.501,0,1-0.015,1.496-0.043c1.215-0.073,2.271-0.856,2.689-1.998C513.549,243.773,503.8,223.045,487.392,213.507z"/>
		<path d="M514.273,195.986c-3.121-20.591-31.086-39.976-50.483-39.976h-0.003c-4.281,0-8.094,0.881-11.328,2.62
			c-1.172,0.63-1.803,1.943-1.561,3.252c3.956,21.359,31.493,44.814,52.619,44.814h0.175c3.194-0.019,6.76-0.389,8.969-2.975
			C514.252,201.861,514.778,199.33,514.273,195.986z"/>
		<path d="M508.9,376.794c-18.305,0-37.253,8.868-51.983,24.33c-0.634,0.668-0.937,1.582-0.82,2.494s0.637,1.726,1.417,2.213
			c9.006,5.618,19.654,8.586,30.793,8.586c19.085,0,38.174-8.77,51.06-23.461c0.562-0.64,0.832-1.487,0.743-2.335
			s-0.526-1.618-1.206-2.133C530.452,380.149,520.075,376.794,508.9,376.794z"/>
		<path d="M391.289,514.103c-27.387-8.146-54.759-16.353-82.133-24.538c-1.619-0.483-2.953-1.484-2.978-2.23
			c-0.024-0.747,1.205-1.919,2.741-2.622c2.65-1.215,5.297-2.439,7.978-3.577c10.863-4.618,21.543-9.808,32.699-13.562
			c7.757-2.61,11.781-6.393,10.401-14.336c-0.288-1.665-1.959-2.408-3.498-1.711c-12.95,5.879-25.835,11.895-38.908,17.479
			c-8.029,3.43-15.884,9.409-25.443,3.577c-0.509-0.31-1.297-0.401-2.118-0.383c-0.82-0.019-1.609,0.073-2.118,0.383
			c-9.559,5.832-17.414-0.147-25.444-3.577c-13.072-5.585-25.958-11.601-38.908-17.479c-1.539-0.697-3.21,0.046-3.498,1.711
			c-1.38,7.943,2.644,11.729,10.401,14.336c11.157,3.755,21.836,8.941,32.699,13.562c2.681,1.141,5.327,2.362,7.978,3.577
			c1.536,0.703,2.766,1.875,2.742,2.622c-0.024,0.746-1.359,1.744-2.978,2.23c-27.378,8.186-54.747,16.393-82.133,24.538
			c-9.511,2.827-17.393,11.652-19.667,22.148c-0.358,1.652,0.664,2.626,2.09,2.136c0.881-0.303,1.732-0.603,2.57-0.93
			c31.031-12.124,62.078-24.208,93.07-36.436c6.469-2.553,12.463-5.896,19.603-1.15c0.483,0.321,1.083,0.455,1.759,0.48
			c1.019,0.036,2.65,0.036,3.666,0c0.674-0.025,1.276-0.159,1.76-0.48c7.14-4.746,13.134-1.402,19.603,1.15
			c30.988,12.228,62.038,24.312,93.07,36.436c0.838,0.327,1.688,0.627,2.57,0.93c1.426,0.49,2.447-0.483,2.09-2.136
			C408.683,525.755,400.8,516.934,391.289,514.103z"/>
	</g>
</g>
<g>
</g>
<g>
</g>
<g>
</g>
<g>
</g>
<g>
</g>
<g>
</g>
<g>
</g>
<g>
</g>
<g>
</g>
<g>
</g>
<g>
</g>
<g>
</g>
<g>
</g>
<g>
</g>
<g>
</g>
</svg>
