<?xml version="1.0" encoding="UTF-8"?>
<svg xmlns="http://www.w3.org/2000/svg" xmlns:xlink="http://www.w3.org/1999/xlink" viewBox="0 0 24 24" version="1.1" width="480px" height="480px">
<g id="surface1">
<path style=" " d="M 15 2 C 12.945313 2 11.09375 2.898438 9.8125 4.3125 C 10.507813 4.117188 11.242188 4 12 4 C 12.589844 4 13.164063 4.066406 13.71875 4.1875 C 14.132813 4.078125 14.550781 4 15 4 C 17.757813 4 20 6.242188 20 9 C 20 9.449219 19.921875 9.867188 19.8125 10.28125 C 19.933594 10.835938 20 11.410156 20 12 C 20 12.757813 19.882813 13.492188 19.6875 14.1875 C 21.101563 12.90625 22 11.054688 22 9 C 22 5.140625 18.859375 2 15 2 Z M 12 5 C 9.945313 5 8.09375 5.898438 6.8125 7.3125 C 7.507813 7.117188 8.242188 7 9 7 C 9.589844 7 10.164063 7.066406 10.71875 7.1875 C 11.132813 7.078125 11.550781 7 12 7 C 14.757813 7 17 9.242188 17 12 C 17 12.449219 16.921875 12.867188 16.8125 13.28125 C 16.933594 13.835938 17 14.410156 17 15 C 17 15.757813 16.882813 16.492188 16.6875 17.1875 C 18.101563 15.90625 19 14.054688 19 12 C 19 8.140625 15.859375 5 12 5 Z M 9 8 C 5.144531 8 2 11.144531 2 15 C 2 18.855469 5.144531 22 9 22 C 12.855469 22 16 18.855469 16 15 C 16 11.144531 12.855469 8 9 8 Z M 9 10 C 11.773438 10 14 12.226563 14 15 C 14 17.773438 11.773438 20 9 20 C 6.226563 20 4 17.773438 4 15 C 4 12.226563 6.226563 10 9 10 Z "/>
</g>
</svg>
