<?xml version="1.0" encoding="UTF-8"?>
<svg xmlns="http://www.w3.org/2000/svg" xmlns:xlink="http://www.w3.org/1999/xlink" viewBox="0 0 24 24" version="1.1" width="480px" height="480px">
<g id="surface1">
<path style=" " d="M 20 10 L 16 10 L 16 7 C 16 5.894531 15.105469 5 14 5 L 10 5 C 8.894531 5 8 5.894531 8 7 L 8 9 L 4 9 C 2.894531 9 2 9.894531 2 11 L 2 19 L 22 19 L 22 12 C 22 10.894531 21.105469 10 20 10 Z M 6.992188 15.210938 L 6.992188 16 L 4.089844 16 L 4.089844 15.328125 C 5.410156 13.710938 6.109375 13.136719 6.109375 12.492188 C 6.109375 12.273438 6.03125 11.789063 5.53125 11.789063 C 4.910156 11.789063 4.886719 12.5 4.886719 12.621094 L 4 12.621094 C 3.984375 12.117188 4.324219 11 5.546875 11 C 6.734375 11 6.996094 11.824219 6.996094 12.398438 C 6.996094 13.199219 6.445313 13.828125 5.226563 15.210938 Z M 13 12 L 12 12 L 12 8 L 11 8.421875 L 11 7.421875 L 12 7 L 13 7 Z M 18.472656 17 C 17.347656 17 16.964844 16.113281 17.007813 15.601563 L 17.863281 15.601563 C 17.835938 15.777344 17.976563 16.222656 18.492188 16.222656 C 19.105469 16.222656 19.144531 15.660156 19.144531 15.558594 C 19.144531 14.800781 18.546875 14.832031 18.4375 14.832031 L 17.980469 14.832031 L 17.980469 14.078125 L 18.4375 14.078125 C 18.652344 14.078125 19.074219 14.003906 19.074219 13.40625 C 19.074219 12.824219 18.589844 12.785156 18.492188 12.785156 C 18.003906 12.785156 17.914063 13.183594 17.914063 13.335938 L 17.058594 13.335938 C 17.058594 12.371094 17.886719 12.011719 18.472656 12.011719 C 19.785156 12.011719 19.933594 13.019531 19.933594 13.394531 C 19.933594 14.070313 19.382813 14.382813 19.277344 14.4375 C 19.519531 14.535156 20 14.808594 20 15.570313 C 20 16.664063 19.097656 17 18.472656 17 Z "/>
</g>
</svg>
