<?xml version="1.0"?>
<svg xmlns="http://www.w3.org/2000/svg" viewBox="0 0 16 16" width="512px" height="512px">
    <path d="M 3.0449219 1.0332031 C 2.4200469 1.0223281 1.9131875 1.1961875 1.5546875 1.5546875 C 0.8376875 2.2706875 0.85914062 3.5811875 1.6191406 5.2421875 C 1.7811406 5.5951875 1.9879844 5.960125 2.2089844 6.328125 C 2.4359844 6.078125 2.7313594 5.8965469 3.0683594 5.8105469 C 2.8643594 5.4765469 2.6752969 5.1451719 2.5292969 4.8261719 C 1.9732969 3.6091719 1.8727188 2.6497188 2.2617188 2.2617188 C 2.4187188 2.1047187 2.6682344 2.0273438 2.9902344 2.0273438 C 3.4662344 2.0273438 4.0991719 2.1972969 4.8261719 2.5292969 C 5.4191719 2.8012969 6.0476406 3.1830469 6.6816406 3.6230469 C 6.1186406 4.0770469 5.5696875 4.5689844 5.0546875 5.0839844 C 4.7746875 5.3629844 4.5224844 5.6505 4.2714844 5.9375 C 4.5774844 6.0895 4.8299531 6.3251875 5.0019531 6.6171875 C 5.2459531 6.3401875 5.4897188 6.0620156 5.7617188 5.7910156 C 6.3447188 5.2080156 6.9337656 4.6912812 7.5097656 4.2382812 C 8.1027656 4.7062812 8.6955313 5.2170156 9.2695312 5.7910156 C 9.5375313 6.0590156 9.7737656 6.3277031 10.009766 6.5957031 C 10.183766 6.3097031 10.437234 6.0796406 10.740234 5.9316406 C 10.491234 5.6436406 10.244562 5.3519844 9.9765625 5.0839844 C 9.4425625 4.5509844 8.8928438 4.074 8.3398438 3.625 C 9.8408437 2.584 11.192016 2.0234375 12.041016 2.0234375 C 12.360016 2.0234375 12.608531 2.1027188 12.769531 2.2617188 C 13.268531 2.7607188 12.943219 4.1384531 11.949219 5.8144531 C 12.287219 5.9044531 12.581641 6.0926563 12.806641 6.3476562 C 13.977641 4.3876563 14.450562 2.5296875 13.476562 1.5546875 C 12.308563 0.3856875 9.8765313 1.2784687 7.5195312 2.9804688 C 6.7435312 2.4204687 5.9721875 1.9541406 5.2421875 1.6191406 C 4.4121875 1.2391406 3.6697969 1.0440781 3.0449219 1.0332031 z M 3.5 7 C 3.225 7 3 7.225 3 7.5 C 3 7.775 3.225 8 3.5 8 C 3.775 8 4 7.775 4 7.5 C 4 7.225 3.775 7 3.5 7 z M 11.5 7 C 11.225 7 11 7.225 11 7.5 C 11 7.775 11.225 8 11.5 8 C 11.775 8 12 7.775 12 7.5 C 12 7.225 11.775 7 11.5 7 z M 4.9941406 8.3984375 C 4.8191406 8.6884375 4.5638594 8.9232656 4.2558594 9.0722656 C 4.5208594 9.3762656 4.7879844 9.6805625 5.0839844 9.9765625 C 5.5899844 10.482563 6.1296406 10.962156 6.6816406 11.410156 C 4.6096406 12.850156 2.8184688 13.381828 2.2304688 12.798828 C 1.8424688 12.409828 1.943 11.449422 2.5 10.232422 C 2.654 9.8954219 2.8562187 9.5464063 3.0742188 9.1914062 C 2.7372187 9.1074062 2.4408906 8.9247813 2.2128906 8.6757812 C 1.9778906 9.0627813 1.7607969 9.4464062 1.5917969 9.8164062 C 0.83179687 11.477406 0.80839063 12.788859 1.5253906 13.505859 C 1.8913906 13.871859 2.3810781 14.033203 2.9550781 14.033203 C 4.2200781 14.033203 5.886625 13.230828 7.515625 12.048828 C 9.144625 13.230828 10.811172 14.033203 12.076172 14.033203 C 12.649172 14.033203 13.140813 13.871859 13.507812 13.505859 C 14.489813 12.521859 13.999688 10.634297 12.804688 8.6542969 C 12.578687 8.9092969 12.282359 9.0965469 11.943359 9.1855469 C 12.964359 10.887547 13.303828 12.293828 12.798828 12.798828 C 12.210828 13.386828 10.419656 12.854109 8.3476562 11.412109 C 8.8996562 10.964109 9.4383125 10.483562 9.9453125 9.9765625 C 10.230313 9.6915625 10.490906 9.3811719 10.753906 9.0761719 C 10.448906 8.9311719 10.194578 8.7049219 10.017578 8.4199219 C 9.7695781 8.7029219 9.5222813 8.9855312 9.2382812 9.2695312 C 8.6622812 9.8455313 8.0836719 10.339063 7.5136719 10.789062 C 6.9436719 10.339063 6.3670156 9.8455312 5.7910156 9.2695312 C 5.5060156 8.9845312 5.2491406 8.6904375 4.9941406 8.3984375 z"/>
</svg>
