<svg xmlns="http://www.w3.org/2000/svg" xmlns:xlink="http://www.w3.org/1999/xlink" viewBox="0 0 24 24" version="1.1" width="480" height="480" style="fill: rgb(0, 0, 0);">
<g id="surface1">
<path style=" " d="M 2 2 L 2 4 L 4.28125 4 L 6.90625 11.8125 L 5.40625 13.8125 L 5.375 13.8125 C 4.914063 14.457031 4.894531 15.316406 5.21875 15.9375 C 5.542969 16.558594 6.226563 17 7 17 L 20 17 L 20 15 L 7 15 C 7.003906 14.996094 6.988281 14.984375 7 14.96875 L 8.5 13 L 17.90625 13 C 18.304688 13 18.710938 12.804688 18.8125 12.40625 L 21.90625 5.40625 C 22.207031 4.707031 21.699219 4 21 4 L 6.375 4 L 5.9375 2.6875 L 5.71875 2 Z M 7 18 C 5.894531 18 5 18.894531 5 20 C 5 21.105469 5.894531 22 7 22 C 8.105469 22 9 21.105469 9 20 C 9 18.894531 8.105469 18 7 18 Z M 18 18 C 16.894531 18 16 18.894531 16 20 C 16 21.105469 16.894531 22 18 22 C 19.105469 22 20 21.105469 20 20 C 20 18.894531 19.105469 18 18 18 Z "/>
</g>
</svg>