<svg xmlns="http://www.w3.org/2000/svg" xmlns:xlink="http://www.w3.org/1999/xlink" viewBox="0 0 24 24" version="1.1" width="480" height="480" style="fill: rgb(0, 0, 0);">
<g id="surface1">
<path style=" " d="M 10.699219 1.101563 C 5.699219 1.699219 1.601563 5.699219 1 10.800781 C 0.300781 17.398438 5.5 23 12 23 C 12.601563 23 13.199219 22.898438 13.699219 22.699219 C 16.199219 22 17.300781 18.898438 15.800781 16.699219 C 15 15.601563 15.898438 14 17.300781 14 L 21 14 C 22.101563 14 23 13.101563 23 12 C 23 5.5 17.398438 0.300781 10.699219 1.101563 Z M 12 21 C 10.898438 21 10 20.101563 10 19 C 10 17.898438 10.898438 17 12 17 C 13.101563 17 14 17.898438 14 19 C 14 20.101563 13.101563 21 12 21 Z M 18.5 11 C 17.699219 11 17 10.300781 17 9.5 C 17 8.699219 17.699219 8 18.5 8 C 19.300781 8 20 8.699219 20 9.5 C 20 10.300781 19.300781 11 18.5 11 Z M 14.5 7 C 13.699219 7 13 6.300781 13 5.5 C 13 4.699219 13.699219 4 14.5 4 C 15.300781 4 16 4.699219 16 5.5 C 16 6.300781 15.300781 7 14.5 7 Z M 9.5 7 C 8.699219 7 8 6.300781 8 5.5 C 8 4.699219 8.699219 4 9.5 4 C 10.300781 4 11 4.699219 11 5.5 C 11 6.300781 10.300781 7 9.5 7 Z M 5.5 10 C 4.699219 10 4 9.300781 4 8.5 C 4 7.699219 4.699219 7 5.5 7 C 6.300781 7 7 7.699219 7 8.5 C 7 9.300781 6.300781 10 5.5 10 Z M 4.5 15 C 3.699219 15 3 14.300781 3 13.5 C 3 12.699219 3.699219 12 4.5 12 C 5.300781 12 6 12.699219 6 13.5 C 6 14.300781 5.300781 15 4.5 15 Z "/>
</g>
</svg>